<svg xmlns="http://www.w3.org/2000/svg" width="4096" height="4096" viewBox="0 0 1024 1024">
    <defs>
      <filter id="shadow" x="-20%" y="-20%" width="140%" height="140%">
        <feDropShadow dx="0" dy="8" stdDeviation="12" flood-color="#94A3B8" flood-opacity="0.10"/>
      </filter>
      <linearGradient id="orangeGrad" x1="0" y1="0" x2="1" y2="1">
        <stop offset="0%" stop-color="#FFA64D"/>
        <stop offset="100%" stop-color="#FF6A00"/>
      </linearGradient>
      <linearGradient id="peachFill" x1="0" y1="0" x2="1" y2="1">
        <stop offset="0%" stop-color="#FFF3E9"/>
        <stop offset="100%" stop-color="#FDE7D3"/>
      </linearGradient>
      <linearGradient id="tealGrad" x1="0" y1="0" x2="1" y2="1">
        <stop offset="0%" stop-color="#20C7C8"/>
        <stop offset="100%" stop-color="#008EAF"/>
      </linearGradient>
      <linearGradient id="tealFill" x1="0" y1="0" x2="1" y2="1">
        <stop offset="0%" stop-color="#D9F7F8"/>
        <stop offset="100%" stop-color="#BFECEF"/>
      </linearGradient>
      <linearGradient id="blueGrad" x1="0" y1="0" x2="1" y2="1">
        <stop offset="0%" stop-color="#3B82F6"/>
        <stop offset="100%" stop-color="#2563EB"/>
      </linearGradient>
      <linearGradient id="blueFill" x1="0" y1="0" x2="1" y2="1">
        <stop offset="0%" stop-color="#E8F1FF"/>
        <stop offset="100%" stop-color="#D8E7FF"/>
      </linearGradient>
      <linearGradient id="violetGrad" x1="0" y1="0" x2="1" y2="1">
        <stop offset="0%" stop-color="#8B5CF6"/>
        <stop offset="100%" stop-color="#4F46E5"/>
      </linearGradient>
      <linearGradient id="violetFill" x1="0" y1="0" x2="1" y2="1">
        <stop offset="0%" stop-color="#F0E9FF"/>
        <stop offset="100%" stop-color="#E4DAFF"/>
      </linearGradient>
      
    </defs>
    <g filter="url(#shadow)" stroke-linecap="round" stroke-linejoin="round">
    
  <path d="M650 660v72c0 66-54 120-120 120h-40" fill="none" stroke="url(#orangeGrad)" stroke-width="26"/>
  <path d="M716 468c0-174-95-294-256-294-111 0-209 66-252 167" fill="none" stroke="url(#orangeGrad)" stroke-width="26"/>
  <path d="M716 468c41 55 70 110 95 162 13 26 0 50-33 50h-44v54c0 31-23 58-54 62" fill="none" stroke="url(#orangeGrad)" stroke-width="26"/>
  <path d="M578 420c0 20 16 36 36 36s36-16 36-36" fill="none" stroke="url(#orangeGrad)" stroke-width="24"/>
  <path d="M430 372l-150 58 150 58 150-58-150-58z" fill="url(#peachFill)" stroke="url(#orangeGrad)" stroke-width="24"/>
  <path d="M330 430v82c0 34 52 56 100 56s100-22 100-56v-82" fill="none" stroke="url(#orangeGrad)" stroke-width="24"/>
  <path d="M548 438v130" fill="none" stroke="url(#orangeGrad)" stroke-width="22"/>
  <path d="M548 568c18 0 28 24 28 46v24h-56v-24c0-22 10-46 28-46z" fill="#FFF7EF" stroke="url(#orangeGrad)" stroke-width="20"/>
  <path d="M508 330l18 -14M720 404l18 0M614 318l0 -18" fill="none" stroke="#FFA64D" stroke-width="18"/>
  <path d="M485 286l24 0M497 274l0 24" fill="none" stroke="#FFC28A" stroke-width="18"/>

    </g>
    </svg>