<svg xmlns="http://www.w3.org/2000/svg" width="4096" height="4096" viewBox="0 0 1024 1024">
    <defs>
      <filter id="shadow" x="-20%" y="-20%" width="140%" height="140%">
        <feDropShadow dx="0" dy="8" stdDeviation="12" flood-color="#94A3B8" flood-opacity="0.10"/>
      </filter>
      <linearGradient id="orangeGrad" x1="0" y1="0" x2="1" y2="1">
        <stop offset="0%" stop-color="#FFA64D"/>
        <stop offset="100%" stop-color="#FF6A00"/>
      </linearGradient>
      <linearGradient id="peachFill" x1="0" y1="0" x2="1" y2="1">
        <stop offset="0%" stop-color="#FFF3E9"/>
        <stop offset="100%" stop-color="#FDE7D3"/>
      </linearGradient>
      <linearGradient id="tealGrad" x1="0" y1="0" x2="1" y2="1">
        <stop offset="0%" stop-color="#20C7C8"/>
        <stop offset="100%" stop-color="#008EAF"/>
      </linearGradient>
      <linearGradient id="tealFill" x1="0" y1="0" x2="1" y2="1">
        <stop offset="0%" stop-color="#D9F7F8"/>
        <stop offset="100%" stop-color="#BFECEF"/>
      </linearGradient>
      <linearGradient id="blueGrad" x1="0" y1="0" x2="1" y2="1">
        <stop offset="0%" stop-color="#3B82F6"/>
        <stop offset="100%" stop-color="#2563EB"/>
      </linearGradient>
      <linearGradient id="blueFill" x1="0" y1="0" x2="1" y2="1">
        <stop offset="0%" stop-color="#E8F1FF"/>
        <stop offset="100%" stop-color="#D8E7FF"/>
      </linearGradient>
      <linearGradient id="violetGrad" x1="0" y1="0" x2="1" y2="1">
        <stop offset="0%" stop-color="#8B5CF6"/>
        <stop offset="100%" stop-color="#4F46E5"/>
      </linearGradient>
      <linearGradient id="violetFill" x1="0" y1="0" x2="1" y2="1">
        <stop offset="0%" stop-color="#F0E9FF"/>
        <stop offset="100%" stop-color="#E4DAFF"/>
      </linearGradient>
      
    </defs>
    <g filter="url(#shadow)" stroke-linecap="round" stroke-linejoin="round">
    
  <path d="M224 348v-88c0-20 16-36 36-36h88" fill="none" stroke="url(#violetGrad)" stroke-width="24"/>
  <path d="M800 348v-88c0-20-16-36-36-36h-88" fill="none" stroke="url(#violetGrad)" stroke-width="24"/>
  <path d="M224 676v88c0 20 16 36 36 36h88" fill="none" stroke="url(#violetGrad)" stroke-width="24"/>
  <path d="M800 676v88c0 20-16 36-36 36h-88" fill="none" stroke="url(#violetGrad)" stroke-width="24"/>
  <path d="M284 512c64-91 139-136 228-136s164 45 228 136c-64 91-139 136-228 136s-164-45-228-136z" fill="url(#violetFill)" stroke="url(#violetGrad)" stroke-width="24"/>
  <circle cx="512" cy="512" r="112" fill="#FFFFFF" stroke="url(#violetGrad)" stroke-width="24"/>
  <circle cx="512" cy="512" r="56" fill="url(#violetGrad)"/>
  <circle cx="536" cy="488" r="14" fill="white"/>
  <path d="M408 324c72-40 152-40 224 0" fill="none" stroke="#C7BFFF" stroke-width="20"/>
  <path d="M408 700c72 40 152 40 224 0" fill="none" stroke="#C7BFFF" stroke-width="20"/>

    </g>
    </svg>