<svg xmlns="http://www.w3.org/2000/svg" width="4096" height="4096" viewBox="0 0 1024 1024">
    <defs>
      <filter id="shadow" x="-20%" y="-20%" width="140%" height="140%">
        <feDropShadow dx="0" dy="8" stdDeviation="12" flood-color="#94A3B8" flood-opacity="0.10"/>
      </filter>
      <linearGradient id="orangeGrad" x1="0" y1="0" x2="1" y2="1">
        <stop offset="0%" stop-color="#FFA64D"/>
        <stop offset="100%" stop-color="#FF6A00"/>
      </linearGradient>
      <linearGradient id="peachFill" x1="0" y1="0" x2="1" y2="1">
        <stop offset="0%" stop-color="#FFF3E9"/>
        <stop offset="100%" stop-color="#FDE7D3"/>
      </linearGradient>
      <linearGradient id="tealGrad" x1="0" y1="0" x2="1" y2="1">
        <stop offset="0%" stop-color="#20C7C8"/>
        <stop offset="100%" stop-color="#008EAF"/>
      </linearGradient>
      <linearGradient id="tealFill" x1="0" y1="0" x2="1" y2="1">
        <stop offset="0%" stop-color="#D9F7F8"/>
        <stop offset="100%" stop-color="#BFECEF"/>
      </linearGradient>
      <linearGradient id="blueGrad" x1="0" y1="0" x2="1" y2="1">
        <stop offset="0%" stop-color="#3B82F6"/>
        <stop offset="100%" stop-color="#2563EB"/>
      </linearGradient>
      <linearGradient id="blueFill" x1="0" y1="0" x2="1" y2="1">
        <stop offset="0%" stop-color="#E8F1FF"/>
        <stop offset="100%" stop-color="#D8E7FF"/>
      </linearGradient>
      <linearGradient id="violetGrad" x1="0" y1="0" x2="1" y2="1">
        <stop offset="0%" stop-color="#8B5CF6"/>
        <stop offset="100%" stop-color="#4F46E5"/>
      </linearGradient>
      <linearGradient id="violetFill" x1="0" y1="0" x2="1" y2="1">
        <stop offset="0%" stop-color="#F0E9FF"/>
        <stop offset="100%" stop-color="#E4DAFF"/>
      </linearGradient>
      
    </defs>
    <g filter="url(#shadow)" stroke-linecap="round" stroke-linejoin="round">
    
  <rect x="220" y="228" width="584" height="568" rx="30" fill="#FFFFFF" stroke="url(#blueGrad)" stroke-width="24"/>
  <circle cx="286" cy="284" r="12" fill="url(#blueGrad)"/>
  <circle cx="330" cy="284" r="12" fill="url(#blueGrad)"/>
  <circle cx="374" cy="284" r="12" fill="url(#blueGrad)"/>
  <line x1="220" y1="344" x2="804" y2="344" stroke="url(#blueGrad)" stroke-width="18"/>
  <rect x="308" y="562" width="52" height="126" rx="10" fill="url(#blueFill)" stroke="url(#blueGrad)" stroke-width="18"/>
  <rect x="406" y="504" width="52" height="184" rx="10" fill="url(#blueFill)" stroke="url(#blueGrad)" stroke-width="18"/>
  <rect x="504" y="444" width="52" height="244" rx="10" fill="url(#blueFill)" stroke="url(#blueGrad)" stroke-width="18"/>
  <rect x="602" y="382" width="52" height="306" rx="10" fill="url(#blueFill)" stroke="url(#blueGrad)" stroke-width="18"/>
  <polyline points="282,498 382,430 480,450 580,362 662,304" fill="none" stroke="url(#blueGrad)" stroke-width="20"/>
  <circle cx="282" cy="498" r="16" fill="#E8F1FF" stroke="url(#blueGrad)" stroke-width="12"/>
  <circle cx="382" cy="430" r="16" fill="#E8F1FF" stroke="url(#blueGrad)" stroke-width="12"/>
  <circle cx="480" cy="450" r="16" fill="#E8F1FF" stroke="url(#blueGrad)" stroke-width="12"/>
  <circle cx="580" cy="362" r="16" fill="#E8F1FF" stroke="url(#blueGrad)" stroke-width="12"/>
  <circle cx="662" cy="304" r="16" fill="#E8F1FF" stroke="url(#blueGrad)" stroke-width="12"/>
  <circle cx="700" cy="620" r="110" fill="#FFFFFF" stroke="url(#blueGrad)" stroke-width="20"/>
  <path d="M700 620 L700 510 A110 110 0 0 1 795 675 Z" fill="url(#blueFill)" stroke="url(#blueGrad)" stroke-width="10"/>
  <path d="M700 620 L795 675 A110 110 0 0 1 628 703 Z" fill="#EEF5FF" stroke="url(#blueGrad)" stroke-width="10"/>
  <path d="M700 620 L628 703 A110 110 0 0 1 700 510 Z" fill="#F7FBFF" stroke="url(#blueGrad)" stroke-width="10"/>
  <line x1="662" y1="402" x2="742" y2="402" stroke="#AFCBFF" stroke-width="16"/>
  <line x1="662" y1="448" x2="728" y2="448" stroke="#AFCBFF" stroke-width="16"/>
  <line x1="662" y1="494" x2="716" y2="494" stroke="#AFCBFF" stroke-width="16"/>

    </g>
    </svg>