<svg xmlns="http://www.w3.org/2000/svg" width="4096" height="4096" viewBox="0 0 1024 1024">
    <defs>
      <filter id="shadow" x="-20%" y="-20%" width="140%" height="140%">
        <feDropShadow dx="0" dy="8" stdDeviation="12" flood-color="#94A3B8" flood-opacity="0.10"/>
      </filter>
      <linearGradient id="orangeGrad" x1="0" y1="0" x2="1" y2="1">
        <stop offset="0%" stop-color="#FFA64D"/>
        <stop offset="100%" stop-color="#FF6A00"/>
      </linearGradient>
      <linearGradient id="peachFill" x1="0" y1="0" x2="1" y2="1">
        <stop offset="0%" stop-color="#FFF3E9"/>
        <stop offset="100%" stop-color="#FDE7D3"/>
      </linearGradient>
      <linearGradient id="tealGrad" x1="0" y1="0" x2="1" y2="1">
        <stop offset="0%" stop-color="#20C7C8"/>
        <stop offset="100%" stop-color="#008EAF"/>
      </linearGradient>
      <linearGradient id="tealFill" x1="0" y1="0" x2="1" y2="1">
        <stop offset="0%" stop-color="#D9F7F8"/>
        <stop offset="100%" stop-color="#BFECEF"/>
      </linearGradient>
      <linearGradient id="blueGrad" x1="0" y1="0" x2="1" y2="1">
        <stop offset="0%" stop-color="#3B82F6"/>
        <stop offset="100%" stop-color="#2563EB"/>
      </linearGradient>
      <linearGradient id="blueFill" x1="0" y1="0" x2="1" y2="1">
        <stop offset="0%" stop-color="#E8F1FF"/>
        <stop offset="100%" stop-color="#D8E7FF"/>
      </linearGradient>
      <linearGradient id="violetGrad" x1="0" y1="0" x2="1" y2="1">
        <stop offset="0%" stop-color="#8B5CF6"/>
        <stop offset="100%" stop-color="#4F46E5"/>
      </linearGradient>
      <linearGradient id="violetFill" x1="0" y1="0" x2="1" y2="1">
        <stop offset="0%" stop-color="#F0E9FF"/>
        <stop offset="100%" stop-color="#E4DAFF"/>
      </linearGradient>
      
    </defs>
    <g filter="url(#shadow)" stroke-linecap="round" stroke-linejoin="round">
    
  <rect x="282" y="282" width="460" height="460" rx="42" fill="url(#peachFill)" stroke="url(#orangeGrad)" stroke-width="24"/>
  <path d="M402 408 L512 356 L622 408 M402 512 L512 460 L622 512 M402 616 L512 564 L622 616" fill="none" stroke="url(#orangeGrad)" stroke-width="18"/>
  <path d="M402 408 L402 616 M512 356 L512 564 M622 408 L622 616" fill="none" stroke="url(#orangeGrad)" stroke-width="18"/>
  <circle cx="402" cy="408" r="16" fill="#FFF5EC" stroke="url(#orangeGrad)" stroke-width="10"/>
  <circle cx="512" cy="356" r="16" fill="#FFF5EC" stroke="url(#orangeGrad)" stroke-width="10"/>
  <circle cx="622" cy="408" r="16" fill="#FFF5EC" stroke="url(#orangeGrad)" stroke-width="10"/>
  <circle cx="402" cy="512" r="16" fill="#FFF5EC" stroke="url(#orangeGrad)" stroke-width="10"/>
  <circle cx="512" cy="460" r="16" fill="#FFF5EC" stroke="url(#orangeGrad)" stroke-width="10"/>
  <circle cx="622" cy="512" r="16" fill="#FFF5EC" stroke="url(#orangeGrad)" stroke-width="10"/>
  <circle cx="402" cy="616" r="16" fill="#FFF5EC" stroke="url(#orangeGrad)" stroke-width="10"/>
  <circle cx="512" cy="564" r="16" fill="#FFF5EC" stroke="url(#orangeGrad)" stroke-width="10"/>
  <circle cx="622" cy="616" r="16" fill="#FFF5EC" stroke="url(#orangeGrad)" stroke-width="10"/>
  <line x1="238" y1="374" x2="282" y2="374" stroke="url(#orangeGrad)" stroke-width="18"/>
  <line x1="220" y1="512" x2="282" y2="512" stroke="url(#orangeGrad)" stroke-width="18"/>
  <line x1="238" y1="650" x2="282" y2="650" stroke="url(#orangeGrad)" stroke-width="18"/>
  <line x1="742" y1="374" x2="786" y2="374" stroke="url(#orangeGrad)" stroke-width="18"/>
  <line x1="742" y1="512" x2="804" y2="512" stroke="url(#orangeGrad)" stroke-width="18"/>
  <line x1="742" y1="650" x2="786" y2="650" stroke="url(#orangeGrad)" stroke-width="18"/>
  <line x1="374" y1="238" x2="374" y2="282" stroke="url(#orangeGrad)" stroke-width="18"/>
  <line x1="512" y1="220" x2="512" y2="282" stroke="url(#orangeGrad)" stroke-width="18"/>
  <line x1="650" y1="238" x2="650" y2="282" stroke="url(#orangeGrad)" stroke-width="18"/>
  <line x1="374" y1="742" x2="374" y2="786" stroke="url(#orangeGrad)" stroke-width="18"/>
  <line x1="512" y1="742" x2="512" y2="804" stroke="url(#orangeGrad)" stroke-width="18"/>
  <line x1="650" y1="742" x2="650" y2="786" stroke="url(#orangeGrad)" stroke-width="18"/>

    </g>
    </svg>