<svg xmlns="http://www.w3.org/2000/svg" width="4096" height="4096" viewBox="0 0 1024 1024">
    <defs>
      <filter id="shadow" x="-20%" y="-20%" width="140%" height="140%">
        <feDropShadow dx="0" dy="8" stdDeviation="12" flood-color="#94A3B8" flood-opacity="0.10"/>
      </filter>
      <linearGradient id="orangeGrad" x1="0" y1="0" x2="1" y2="1">
        <stop offset="0%" stop-color="#FFA64D"/>
        <stop offset="100%" stop-color="#FF6A00"/>
      </linearGradient>
      <linearGradient id="peachFill" x1="0" y1="0" x2="1" y2="1">
        <stop offset="0%" stop-color="#FFF3E9"/>
        <stop offset="100%" stop-color="#FDE7D3"/>
      </linearGradient>
      <linearGradient id="tealGrad" x1="0" y1="0" x2="1" y2="1">
        <stop offset="0%" stop-color="#20C7C8"/>
        <stop offset="100%" stop-color="#008EAF"/>
      </linearGradient>
      <linearGradient id="tealFill" x1="0" y1="0" x2="1" y2="1">
        <stop offset="0%" stop-color="#D9F7F8"/>
        <stop offset="100%" stop-color="#BFECEF"/>
      </linearGradient>
      <linearGradient id="blueGrad" x1="0" y1="0" x2="1" y2="1">
        <stop offset="0%" stop-color="#3B82F6"/>
        <stop offset="100%" stop-color="#2563EB"/>
      </linearGradient>
      <linearGradient id="blueFill" x1="0" y1="0" x2="1" y2="1">
        <stop offset="0%" stop-color="#E8F1FF"/>
        <stop offset="100%" stop-color="#D8E7FF"/>
      </linearGradient>
      <linearGradient id="violetGrad" x1="0" y1="0" x2="1" y2="1">
        <stop offset="0%" stop-color="#8B5CF6"/>
        <stop offset="100%" stop-color="#4F46E5"/>
      </linearGradient>
      <linearGradient id="violetFill" x1="0" y1="0" x2="1" y2="1">
        <stop offset="0%" stop-color="#F0E9FF"/>
        <stop offset="100%" stop-color="#E4DAFF"/>
      </linearGradient>
      
    </defs>
    <g filter="url(#shadow)" stroke-linecap="round" stroke-linejoin="round">
    
  <circle cx="512" cy="488" r="152" fill="url(#peachFill)" stroke="url(#orangeGrad)" stroke-width="24"/>
  <polygon points="512,430 564,460 564,520 512,550 460,520 460,460" fill="#FFF7EF" stroke="url(#orangeGrad)" stroke-width="18"/>
  <path d="M512 430v120M460 460l52 30 52-30" fill="none" stroke="url(#orangeGrad)" stroke-width="16"/>
  <path d="M512 336v-64M624 382l48-42M672 488h70M624 594l48 42M512 640v64M400 594l-48 42M352 488h-70M400 382l-48-42" fill="none" stroke="url(#orangeGrad)" stroke-width="18"/>
  <circle cx="512" cy="272" r="18" fill="#FFF7EF" stroke="url(#orangeGrad)" stroke-width="12"/>
  <circle cx="696" cy="330" r="18" fill="#FFF7EF" stroke="url(#orangeGrad)" stroke-width="12"/>
  <circle cx="768" cy="488" r="18" fill="#FFF7EF" stroke="url(#orangeGrad)" stroke-width="12"/>
  <circle cx="696" cy="646" r="18" fill="#FFF7EF" stroke="url(#orangeGrad)" stroke-width="12"/>
  <circle cx="512" cy="704" r="18" fill="#FFF7EF" stroke="url(#orangeGrad)" stroke-width="12"/>
  <circle cx="328" cy="646" r="18" fill="#FFF7EF" stroke="url(#orangeGrad)" stroke-width="12"/>
  <circle cx="256" cy="488" r="18" fill="#FFF7EF" stroke="url(#orangeGrad)" stroke-width="12"/>
  <circle cx="328" cy="330" r="18" fill="#FFF7EF" stroke="url(#orangeGrad)" stroke-width="12"/>
  <path d="M402 742c0-50 48-90 110-90s110 40 110 90" fill="none" stroke="url(#orangeGrad)" stroke-width="20"/>
  <circle cx="512" cy="790" r="70" fill="url(#peachFill)" stroke="url(#orangeGrad)" stroke-width="20"/>
  <circle cx="512" cy="790" r="18" fill="#FDBA74"/>
  <path d="M512 742v28M550 754l-14 24M474 754l14 24M554 790h28M442 790h28M550 826l-14-24M474 826l14-24" fill="none" stroke="url(#orangeGrad)" stroke-width="12"/>
  <path d="M208 440h18M208 470h18M208 500h18M798 440h18M798 470h18M798 500h18" fill="none" stroke="#FFC28A" stroke-width="12"/>

    </g>
    </svg>