<svg xmlns="http://www.w3.org/2000/svg" width="4096" height="4096" viewBox="0 0 1024 1024">
    <defs>
      <filter id="shadow" x="-20%" y="-20%" width="140%" height="140%">
        <feDropShadow dx="0" dy="8" stdDeviation="12" flood-color="#94A3B8" flood-opacity="0.10"/>
      </filter>
      <linearGradient id="orangeGrad" x1="0" y1="0" x2="1" y2="1">
        <stop offset="0%" stop-color="#FFA64D"/>
        <stop offset="100%" stop-color="#FF6A00"/>
      </linearGradient>
      <linearGradient id="peachFill" x1="0" y1="0" x2="1" y2="1">
        <stop offset="0%" stop-color="#FFF3E9"/>
        <stop offset="100%" stop-color="#FDE7D3"/>
      </linearGradient>
      <linearGradient id="tealGrad" x1="0" y1="0" x2="1" y2="1">
        <stop offset="0%" stop-color="#20C7C8"/>
        <stop offset="100%" stop-color="#008EAF"/>
      </linearGradient>
      <linearGradient id="tealFill" x1="0" y1="0" x2="1" y2="1">
        <stop offset="0%" stop-color="#D9F7F8"/>
        <stop offset="100%" stop-color="#BFECEF"/>
      </linearGradient>
      <linearGradient id="blueGrad" x1="0" y1="0" x2="1" y2="1">
        <stop offset="0%" stop-color="#3B82F6"/>
        <stop offset="100%" stop-color="#2563EB"/>
      </linearGradient>
      <linearGradient id="blueFill" x1="0" y1="0" x2="1" y2="1">
        <stop offset="0%" stop-color="#E8F1FF"/>
        <stop offset="100%" stop-color="#D8E7FF"/>
      </linearGradient>
      <linearGradient id="violetGrad" x1="0" y1="0" x2="1" y2="1">
        <stop offset="0%" stop-color="#8B5CF6"/>
        <stop offset="100%" stop-color="#4F46E5"/>
      </linearGradient>
      <linearGradient id="violetFill" x1="0" y1="0" x2="1" y2="1">
        <stop offset="0%" stop-color="#F0E9FF"/>
        <stop offset="100%" stop-color="#E4DAFF"/>
      </linearGradient>
      
    </defs>
    <g filter="url(#shadow)" stroke-linecap="round" stroke-linejoin="round">
    
  <path d="M506 232c-120 0-218 98-218 218 0 102 70 188 165 212V378c0-22 18-40 40-40h13V232z" fill="url(#violetFill)" stroke="url(#violetGrad)" stroke-width="24"/>
  <path d="M518 232v106h13c22 0 40 18 40 40v284c95-24 165-110 165-212 0-120-98-218-218-218z" fill="#FFFFFF" stroke="url(#violetGrad)" stroke-width="24"/>
  <circle cx="430" cy="438" r="14" fill="url(#violetGrad)"/>
  <circle cx="430" cy="512" r="14" fill="url(#violetGrad)"/>
  <circle cx="430" cy="586" r="14" fill="url(#violetGrad)"/>
  <circle cx="594" cy="422" r="14" fill="#FFFFFF" stroke="url(#violetGrad)" stroke-width="10"/>
  <circle cx="594" cy="512" r="14" fill="#FFFFFF" stroke="url(#violetGrad)" stroke-width="10"/>
  <circle cx="594" cy="602" r="14" fill="#FFFFFF" stroke="url(#violetGrad)" stroke-width="10"/>
  <path d="M518 404h52l24 18M518 512h52l24 0M518 620h52l24-18" fill="none" stroke="url(#violetGrad)" stroke-width="16"/>
  <path d="M678 426c36-8 56-24 80-50M678 512c44 0 70-8 104-28M678 598c36 8 56 24 80 50" fill="none" stroke="#C7BFFF" stroke-width="16"/>

    </g>
    </svg>