<svg xmlns="http://www.w3.org/2000/svg" width="4096" height="4096" viewBox="0 0 1024 1024">
<defs>
  <linearGradient id="blue" x1="0" y1="0" x2="1" y2="1">
    <stop offset="0" stop-color="#3B82F6"/>
    <stop offset="1" stop-color="#1D4ED8"/>
  </linearGradient>
  <linearGradient id="violet" x1="0" y1="0" x2="1" y2="1">
    <stop offset="0" stop-color="#8B5CF6"/>
    <stop offset="1" stop-color="#6D28D9"/>
  </linearGradient>
  <linearGradient id="orange" x1="0" y1="0" x2="1" y2="1">
    <stop offset="0" stop-color="#FB923C"/>
    <stop offset="1" stop-color="#EA580C"/>
  </linearGradient>
  <linearGradient id="green" x1="0" y1="0" x2="1" y2="1">
    <stop offset="0" stop-color="#34D399"/>
    <stop offset="1" stop-color="#059669"/>
  </linearGradient>
  <linearGradient id="cyan" x1="0" y1="0" x2="1" y2="1">
    <stop offset="0" stop-color="#22D3EE"/>
    <stop offset="1" stop-color="#0891B2"/>
  </linearGradient>
  <filter id="shadow" x="-30%" y="-30%" width="160%" height="160%">
    <feDropShadow dx="0" dy="24" stdDeviation="24" flood-color="#0F172A" flood-opacity=".18"/>
  </filter>
</defs>

<g filter="url(#shadow)">
  <rect x="188" y="170" width="648" height="580" rx="110" fill="#F5F3FF"/>
  <rect x="270" y="262" width="484" height="350" rx="110" fill="#fff" stroke="#C4B5FD" stroke-width="22"/>
  <circle cx="400" cy="434" r="42" fill="#22D3EE"/>
  <circle cx="624" cy="434" r="42" fill="#22D3EE"/>
  <rect x="426" y="512" width="172" height="30" rx="15" fill="#A78BFA"/>
  <path d="M330 262V194M694 262V194" stroke="#334155" stroke-width="30" stroke-linecap="round"/>
  <circle cx="330" cy="182" r="34" fill="#8B5CF6"/>
  <circle cx="694" cy="182" r="34" fill="#8B5CF6"/>
  <rect x="702" y="610" width="190" height="150" rx="48" fill="url(#violet)"/>
  <path d="M758 760l-18 72 72-72" fill="url(#violet)"/>
  <circle cx="758" cy="680" r="16" fill="#fff"/>
  <circle cx="812" cy="680" r="16" fill="#fff"/>
  <circle cx="866" cy="680" r="16" fill="#fff"/>
  <path d="M232 730h516" stroke="#334155" stroke-width="36" stroke-linecap="round"/>
</g>
</svg>