<svg xmlns="http://www.w3.org/2000/svg" width="4096" height="4096" viewBox="0 0 1024 1024">
<defs>
  <linearGradient id="blue" x1="0" y1="0" x2="1" y2="1">
    <stop offset="0" stop-color="#3B82F6"/>
    <stop offset="1" stop-color="#1D4ED8"/>
  </linearGradient>
  <linearGradient id="violet" x1="0" y1="0" x2="1" y2="1">
    <stop offset="0" stop-color="#8B5CF6"/>
    <stop offset="1" stop-color="#6D28D9"/>
  </linearGradient>
  <linearGradient id="orange" x1="0" y1="0" x2="1" y2="1">
    <stop offset="0" stop-color="#FB923C"/>
    <stop offset="1" stop-color="#EA580C"/>
  </linearGradient>
  <linearGradient id="green" x1="0" y1="0" x2="1" y2="1">
    <stop offset="0" stop-color="#34D399"/>
    <stop offset="1" stop-color="#059669"/>
  </linearGradient>
  <linearGradient id="cyan" x1="0" y1="0" x2="1" y2="1">
    <stop offset="0" stop-color="#22D3EE"/>
    <stop offset="1" stop-color="#0891B2"/>
  </linearGradient>
  <filter id="shadow" x="-30%" y="-30%" width="160%" height="160%">
    <feDropShadow dx="0" dy="24" stdDeviation="24" flood-color="#0F172A" flood-opacity=".18"/>
  </filter>
</defs>

<g filter="url(#shadow)">
  <rect x="132" y="190" width="760" height="570" rx="92" fill="url(#blue)"/>
  <path d="M210 705l88-86h455l61 86z" fill="#fff" opacity=".18"/>
  <rect x="208" y="266" width="608" height="302" rx="48" fill="#EFF6FF"/>
  <circle cx="360" cy="416" r="58" fill="#34D399"/>
  <circle cx="512" cy="416" r="58" fill="#FBBF24"/>
  <circle cx="664" cy="416" r="58" fill="#FB7185"/>
  <path d="M334 422c16 18 36 18 52 0" stroke="#064E3B" stroke-width="18" stroke-linecap="round" fill="none"/>
  <path d="M486 426h52" stroke="#78350F" stroke-width="18" stroke-linecap="round"/>
  <path d="M638 442c16-18 36-18 52 0" stroke="#881337" stroke-width="18" stroke-linecap="round" fill="none"/>
  <path d="M274 228h476" stroke="#FDE68A" stroke-width="18" stroke-linecap="round"/>
  <g fill="#FDE68A">
    <path d="M310 207l16 32 36 5-26 25 6 36-32-17-32 17 6-36-26-25 36-5z"/>
    <path d="M414 207l16 32 36 5-26 25 6 36-32-17-32 17 6-36-26-25 36-5z"/>
    <path d="M518 207l16 32 36 5-26 25 6 36-32-17-32 17 6-36-26-25 36-5z"/>
    <path d="M622 207l16 32 36 5-26 25 6 36-32-17-32 17 6-36-26-25 36-5z"/>
  </g>
</g>
</svg>