<svg xmlns="http://www.w3.org/2000/svg" width="4096" height="4096" viewBox="0 0 1024 1024">
<defs>
  <linearGradient id="blue" x1="0" y1="0" x2="1" y2="1">
    <stop offset="0" stop-color="#3B82F6"/>
    <stop offset="1" stop-color="#1D4ED8"/>
  </linearGradient>
  <linearGradient id="violet" x1="0" y1="0" x2="1" y2="1">
    <stop offset="0" stop-color="#8B5CF6"/>
    <stop offset="1" stop-color="#6D28D9"/>
  </linearGradient>
  <linearGradient id="orange" x1="0" y1="0" x2="1" y2="1">
    <stop offset="0" stop-color="#FB923C"/>
    <stop offset="1" stop-color="#EA580C"/>
  </linearGradient>
  <linearGradient id="green" x1="0" y1="0" x2="1" y2="1">
    <stop offset="0" stop-color="#34D399"/>
    <stop offset="1" stop-color="#059669"/>
  </linearGradient>
  <linearGradient id="cyan" x1="0" y1="0" x2="1" y2="1">
    <stop offset="0" stop-color="#22D3EE"/>
    <stop offset="1" stop-color="#0891B2"/>
  </linearGradient>
  <filter id="shadow" x="-30%" y="-30%" width="160%" height="160%">
    <feDropShadow dx="0" dy="24" stdDeviation="24" flood-color="#0F172A" flood-opacity=".18"/>
  </filter>
</defs>

<g filter="url(#shadow)">
  <rect x="120" y="150" width="784" height="720" rx="96" fill="#EFF6FF"/>
  <path d="M206 706V320" stroke="#BFDBFE" stroke-width="24"/>
  <path d="M206 706h594" stroke="#BFDBFE" stroke-width="24"/>
  <rect x="276" y="566" width="72" height="140" rx="18" fill="url(#blue)"/>
  <rect x="396" y="476" width="72" height="230" rx="18" fill="url(#cyan)"/>
  <rect x="516" y="380" width="72" height="326" rx="18" fill="url(#blue)"/>
  <path d="M250 520l138-98 120 40 188-188" stroke="#0EA5E9" stroke-width="34" stroke-linecap="round" stroke-linejoin="round" fill="none"/>
  <path d="M640 268h92v92" stroke="#0EA5E9" stroke-width="34" stroke-linecap="round" stroke-linejoin="round" fill="none"/>
  <circle cx="744" cy="674" r="126" fill="url(#green)"/>
  <path d="M744 610v128M700 640c0-28 88-28 88 0s-88 26-88 58 88 32 88 0" stroke="#fff" stroke-width="26" stroke-linecap="round" fill="none"/>
</g>
</svg>