<svg xmlns="http://www.w3.org/2000/svg" width="4096" height="4096" viewBox="0 0 1024 1024">
<defs>
  <linearGradient id="blue" x1="0" y1="0" x2="1" y2="1">
    <stop offset="0" stop-color="#3B82F6"/>
    <stop offset="1" stop-color="#1D4ED8"/>
  </linearGradient>
  <linearGradient id="violet" x1="0" y1="0" x2="1" y2="1">
    <stop offset="0" stop-color="#8B5CF6"/>
    <stop offset="1" stop-color="#6D28D9"/>
  </linearGradient>
  <linearGradient id="orange" x1="0" y1="0" x2="1" y2="1">
    <stop offset="0" stop-color="#FB923C"/>
    <stop offset="1" stop-color="#EA580C"/>
  </linearGradient>
  <linearGradient id="green" x1="0" y1="0" x2="1" y2="1">
    <stop offset="0" stop-color="#34D399"/>
    <stop offset="1" stop-color="#059669"/>
  </linearGradient>
  <linearGradient id="cyan" x1="0" y1="0" x2="1" y2="1">
    <stop offset="0" stop-color="#22D3EE"/>
    <stop offset="1" stop-color="#0891B2"/>
  </linearGradient>
  <filter id="shadow" x="-30%" y="-30%" width="160%" height="160%">
    <feDropShadow dx="0" dy="24" stdDeviation="24" flood-color="#0F172A" flood-opacity=".18"/>
  </filter>
</defs>

<g filter="url(#shadow)">
  <circle cx="512" cy="512" r="410" fill="#E9EEF5"/>
  <path d="M312 430c12-188 102-280 200-280 120 0 208 96 212 284-74-26-136-68-176-126-36 64-118 112-236 122z" fill="#2A1A14"/>
  <ellipse cx="512" cy="470" rx="168" ry="198" fill="#C98A5A"/>
  <circle cx="448" cy="470" r="16" fill="#111827"/>
  <circle cx="576" cy="470" r="16" fill="#111827"/>
  <path d="M458 560c30 24 78 24 108 0" stroke="#7C2D12" stroke-width="16" stroke-linecap="round" fill="none"/>
  <path d="M266 868c42-166 150-238 246-238s204 72 246 238z" fill="#A56A43"/>
</g>
</svg>