<svg xmlns="http://www.w3.org/2000/svg" width="4096" height="4096" viewBox="0 0 1024 1024">
<defs>
  <linearGradient id="blue" x1="0" y1="0" x2="1" y2="1">
    <stop offset="0" stop-color="#3B82F6"/>
    <stop offset="1" stop-color="#1D4ED8"/>
  </linearGradient>
  <linearGradient id="violet" x1="0" y1="0" x2="1" y2="1">
    <stop offset="0" stop-color="#8B5CF6"/>
    <stop offset="1" stop-color="#6D28D9"/>
  </linearGradient>
  <linearGradient id="orange" x1="0" y1="0" x2="1" y2="1">
    <stop offset="0" stop-color="#FB923C"/>
    <stop offset="1" stop-color="#EA580C"/>
  </linearGradient>
  <linearGradient id="green" x1="0" y1="0" x2="1" y2="1">
    <stop offset="0" stop-color="#34D399"/>
    <stop offset="1" stop-color="#059669"/>
  </linearGradient>
  <linearGradient id="cyan" x1="0" y1="0" x2="1" y2="1">
    <stop offset="0" stop-color="#22D3EE"/>
    <stop offset="1" stop-color="#0891B2"/>
  </linearGradient>
  <filter id="shadow" x="-30%" y="-30%" width="160%" height="160%">
    <feDropShadow dx="0" dy="24" stdDeviation="24" flood-color="#0F172A" flood-opacity=".18"/>
  </filter>
</defs>

<g filter="url(#shadow)">
  <circle cx="512" cy="512" r="410" fill="#F8EDE3"/>
  <path d="M294 470c0-202 102-314 218-314s218 112 218 314v208H294z" fill="#2B160E"/>
  <ellipse cx="512" cy="452" rx="174" ry="210" fill="#D9A06A"/>
  <path d="M352 424c18-130 92-210 160-210 96 0 158 78 170 202-64-30-108-86-132-150-44 74-112 132-198 158z" fill="#2B160E"/>
  <circle cx="448" cy="454" r="16" fill="#111827"/>
  <circle cx="576" cy="454" r="16" fill="#111827"/>
  <path d="M456 554c34 30 78 30 112 0" stroke="#9F1239" stroke-width="18" stroke-linecap="round" fill="none"/>
  <path d="M266 868c42-166 150-238 246-238s204 72 246 238z" fill="#F4E7D7"/>
</g>
</svg>