<svg xmlns="http://www.w3.org/2000/svg" width="4096" height="4096" viewBox="0 0 1024 1024">
<defs>
  <linearGradient id="blue" x1="0" y1="0" x2="1" y2="1">
    <stop offset="0" stop-color="#3B82F6"/>
    <stop offset="1" stop-color="#1D4ED8"/>
  </linearGradient>
  <linearGradient id="violet" x1="0" y1="0" x2="1" y2="1">
    <stop offset="0" stop-color="#8B5CF6"/>
    <stop offset="1" stop-color="#6D28D9"/>
  </linearGradient>
  <linearGradient id="orange" x1="0" y1="0" x2="1" y2="1">
    <stop offset="0" stop-color="#FB923C"/>
    <stop offset="1" stop-color="#EA580C"/>
  </linearGradient>
  <linearGradient id="green" x1="0" y1="0" x2="1" y2="1">
    <stop offset="0" stop-color="#34D399"/>
    <stop offset="1" stop-color="#059669"/>
  </linearGradient>
  <linearGradient id="cyan" x1="0" y1="0" x2="1" y2="1">
    <stop offset="0" stop-color="#22D3EE"/>
    <stop offset="1" stop-color="#0891B2"/>
  </linearGradient>
  <filter id="shadow" x="-30%" y="-30%" width="160%" height="160%">
    <feDropShadow dx="0" dy="24" stdDeviation="24" flood-color="#0F172A" flood-opacity=".18"/>
  </filter>
</defs>

<g filter="url(#shadow)">
  <circle cx="512" cy="512" r="400" fill="#ECFDF5"/>
  
<path d="M392 280h240v140c0 84-52 138-120 138s-120-54-120-138z" fill="#10B981"/>
<path d="M392 328H278c0 112 42 178 132 190M632 328h114c0 112-42 178-132 190" stroke="#10B981" stroke-width="34" fill="none"/>
<path d="M512 558v116M414 742h196" stroke="#10B981" stroke-width="34" stroke-linecap="round"/>
<path d="M512 222l22 44 48 7-35 34 8 48-43-23-43 23 8-48-35-34 48-7z" fill="#FDE68A"/>

</g>
</svg>