<svg xmlns="http://www.w3.org/2000/svg" width="4096" height="4096" viewBox="0 0 1024 1024">
<defs>
  <linearGradient id="blue" x1="0" y1="0" x2="1" y2="1">
    <stop offset="0" stop-color="#3B82F6"/>
    <stop offset="1" stop-color="#1D4ED8"/>
  </linearGradient>
  <linearGradient id="blueSoft" x1="0" y1="0" x2="1" y2="1">
    <stop offset="0" stop-color="#93C5FD"/>
    <stop offset="1" stop-color="#2563EB"/>
  </linearGradient>
  <linearGradient id="violet" x1="0" y1="0" x2="1" y2="1">
    <stop offset="0" stop-color="#8B5CF6"/>
    <stop offset="1" stop-color="#4F46E5"/>
  </linearGradient>
  <linearGradient id="orange" x1="0" y1="0" x2="1" y2="1">
    <stop offset="0" stop-color="#FB923C"/>
    <stop offset="1" stop-color="#EA580C"/>
  </linearGradient>
  <filter id="shadow" x="-30%" y="-30%" width="160%" height="160%">
    <feDropShadow dx="0" dy="18" stdDeviation="18" flood-color="#0F172A" flood-opacity=".16"/>
  </filter>
</defs>

<g filter="url(#shadow)">
  <path d="M508 130c104 60 170 166 170 286 0 96-42 178-108 240l-62 58-62-58c-66-62-108-144-108-240 0-120 66-226 170-286z" fill="url(#blue)"/>
  <circle cx="508" cy="350" r="72" fill="#EFF6FF" stroke="#1E40AF" stroke-width="18"/>
  <circle cx="508" cy="350" r="26" fill="#60A5FA"/>
  <path d="M338 484l-106 118 116 16 54-86z" fill="#60A5FA"/>
  <path d="M678 484l106 118-116 16-54-86z" fill="#60A5FA"/>
  <path d="M430 666h156l-20 92H450z" fill="#F97316"/>
  <path d="M464 758h88l-44 118z" fill="#FDBA74"/>
  <path d="M488 782h40l-20 94z" fill="#F97316"/>
</g>
</svg>