<svg xmlns="http://www.w3.org/2000/svg" width="4096" height="4096" viewBox="0 0 1024 1024">
<defs>
  <linearGradient id="blue" x1="0" y1="0" x2="1" y2="1">
    <stop offset="0" stop-color="#3B82F6"/>
    <stop offset="1" stop-color="#1D4ED8"/>
  </linearGradient>
  <linearGradient id="blueSoft" x1="0" y1="0" x2="1" y2="1">
    <stop offset="0" stop-color="#93C5FD"/>
    <stop offset="1" stop-color="#2563EB"/>
  </linearGradient>
  <linearGradient id="violet" x1="0" y1="0" x2="1" y2="1">
    <stop offset="0" stop-color="#8B5CF6"/>
    <stop offset="1" stop-color="#4F46E5"/>
  </linearGradient>
  <linearGradient id="orange" x1="0" y1="0" x2="1" y2="1">
    <stop offset="0" stop-color="#FB923C"/>
    <stop offset="1" stop-color="#EA580C"/>
  </linearGradient>
  <filter id="shadow" x="-30%" y="-30%" width="160%" height="160%">
    <feDropShadow dx="0" dy="18" stdDeviation="18" flood-color="#0F172A" flood-opacity=".16"/>
  </filter>
</defs>

<g filter="url(#shadow)">
  <circle cx="512" cy="328" r="118" fill="url(#blue)"/>
  <circle cx="284" cy="398" r="88" fill="#60A5FA"/>
  <circle cx="740" cy="398" r="88" fill="#60A5FA"/>
  <path d="M286 832c34-196 128-300 226-300s192 104 226 300z" fill="url(#blue)"/>
  <path d="M92 804c26-152 108-236 194-236 54 0 102 24 140 68-70 40-126 96-164 168z" fill="#60A5FA"/>
  <path d="M762 804c-38-72-94-128-164-168 38-44 86-68 140-68 86 0 168 84 194 236z" fill="#60A5FA"/>
</g>
</svg>