<svg xmlns="http://www.w3.org/2000/svg" width="4096" height="4096" viewBox="0 0 1024 1024">
<defs>
  <linearGradient id="blue" x1="0" y1="0" x2="1" y2="1">
    <stop offset="0" stop-color="#3B82F6"/>
    <stop offset="1" stop-color="#1D4ED8"/>
  </linearGradient>
  <linearGradient id="blueSoft" x1="0" y1="0" x2="1" y2="1">
    <stop offset="0" stop-color="#93C5FD"/>
    <stop offset="1" stop-color="#2563EB"/>
  </linearGradient>
  <linearGradient id="violet" x1="0" y1="0" x2="1" y2="1">
    <stop offset="0" stop-color="#8B5CF6"/>
    <stop offset="1" stop-color="#4F46E5"/>
  </linearGradient>
  <linearGradient id="orange" x1="0" y1="0" x2="1" y2="1">
    <stop offset="0" stop-color="#FB923C"/>
    <stop offset="1" stop-color="#EA580C"/>
  </linearGradient>
  <filter id="shadow" x="-30%" y="-30%" width="160%" height="160%">
    <feDropShadow dx="0" dy="18" stdDeviation="18" flood-color="#0F172A" flood-opacity=".16"/>
  </filter>
</defs>

<g filter="url(#shadow)">
  <path d="M214 394c26-122 124-202 298-202s272 80 298 202l62 280c18 82-72 140-136 86l-118-100H406L288 760c-64 54-154-4-136-86z" fill="url(#violet)"/>
  <rect x="280" y="430" width="196" height="66" rx="24" fill="#EDE9FE"/>
  <rect x="345" y="365" width="66" height="196" rx="24" fill="#EDE9FE"/>
  <circle cx="650" cy="420" r="42" fill="#EDE9FE"/>
  <circle cx="742" cy="500" r="42" fill="#EDE9FE"/>
  <circle cx="742" cy="420" r="28" fill="#C4B5FD"/>
  <circle cx="650" cy="500" r="28" fill="#C4B5FD"/>
  <path d="M458 654h108" stroke="#C4B5FD" stroke-width="26" stroke-linecap="round"/>
</g>
</svg>