<svg xmlns="http://www.w3.org/2000/svg" width="4096" height="4096" viewBox="0 0 1024 1024">
<defs>
  <filter id="shadow" x="-30%" y="-30%" width="160%" height="160%">
    <feDropShadow dx="0" dy="22" stdDeviation="22" flood-color="#0F172A" flood-opacity=".16"/>
  </filter>
  <linearGradient id="insta" x1="0" y1="1" x2="1" y2="0">
    <stop offset="0" stop-color="#F9CE34"/>
    <stop offset=".35" stop-color="#EE2A7B"/>
    <stop offset=".7" stop-color="#6228D7"/>
    <stop offset="1" stop-color="#4F5BD5"/>
  </linearGradient>
</defs>

<g filter="url(#shadow)">
  <circle cx="512" cy="512" r="414" fill="#F4EFE8"/>
  <path d="M286 478c0-220 106-336 226-336s226 116 226 336v234H286z" fill="#3B1F17"/>
  <ellipse cx="512" cy="456" rx="174" ry="208" fill="#E3AA7A"/>
  <path d="M340 414c18-124 90-206 172-206 94 0 160 74 176 194-64-24-114-80-142-148-44 74-112 132-206 160z" fill="#3B1F17"/>
  <circle cx="450" cy="458" r="16" fill="#111827"/>
  <circle cx="574" cy="458" r="16" fill="#111827"/>
  <path d="M462 552c30 28 70 28 100 0" stroke="#9F1239" stroke-width="16" stroke-linecap="round" fill="none"/>
  <path d="M254 876c44-170 154-242 258-242s214 72 258 242z" fill="#1D4ED8"/>
</g>
</svg>